<?xml version="1.0" encoding="UTF-8" standalone="no"?>
<!-- Created with Inkscape (http://www.inkscape.org/) -->

<svg
   xmlns:dc="http://purl.org/dc/elements/1.1/"
   xmlns:cc="http://creativecommons.org/ns#"
   xmlns:rdf="http://www.w3.org/1999/02/22-rdf-syntax-ns#"
   xmlns:svg="http://www.w3.org/2000/svg"
   xmlns="http://www.w3.org/2000/svg"
   xmlns:inkscape="http://www.inkscape.org/namespaces/inkscape"
   version="1.1"
   width="196.0125"
   height="260.28125"
   id="svg2"
   xml:space="preserve"><metadata
     id="metadata8"><rdf:RDF><cc:Work
         rdf:about=""><dc:format>image/svg+xml</dc:format><dc:type
           rdf:resource="http://purl.org/dc/dcmitype/StillImage" /></cc:Work></rdf:RDF></metadata><defs
     id="defs6"><clipPath
       id="clipPath16"><path
         d="m 92.614,208.225 -5.507,-9.345 c -0.542,-0.92 -3.885,-6.618 -8.703,-15.22 l 0,0 c -4.815,8.602 -8.156,14.3 -8.699,15.22 l 0,0 -5.509,9.345 -5.505,-9.345 C 56.294,194.813 0,98.915 0,65.122 l 0,0 C 0,29.211 28.8,0 64.196,0 l 0,0 c 4.886,0 9.635,0.566 14.208,1.621 l 0,0 C 82.981,0.566 87.733,0 92.614,0 l 0,0 c 35.402,0 64.196,29.211 64.196,65.122 l 0,0 c 0,33.793 -56.293,129.691 -58.688,133.758 l 0,0 -5.508,9.345 z m 35.78,-143.103 c 0,22.656 -25.308,73.234 -42.709,105.328 l 0,0 c 2.463,4.478 4.8,8.664 6.929,12.415 l 0,0 c 18.214,-32.039 51.413,-95.111 51.413,-117.743 l 0,0 c 0,-24.859 -17.111,-45.673 -39.957,-50.989 l 0,0 c 14.802,11.939 24.324,30.351 24.324,50.989 M 33.358,23.311 c -0.006,0 -0.008,0.002 -0.008,0.002 l 0,0 C 32.233,24.166 31.157,25.067 30.113,26 l 0,0 c -0.049,0.045 -0.094,0.09 -0.141,0.137 l 0,0 c -4.07,3.714 -7.557,8.05 -10.305,12.898 l 0,0 c -0.096,0.168 -0.202,0.328 -0.295,0.497 l 0,0 c -0.481,0.868 -0.912,1.767 -1.344,2.674 l 0,0 c -0.259,0.534 -0.523,1.065 -0.766,1.61 l 0,0 c -0.354,0.809 -0.673,1.623 -0.99,2.456 l 0,0 c -0.26,0.689 -0.508,1.37 -0.743,2.07 l 0,0 c -0.258,0.771 -0.498,1.549 -0.719,2.343 l 0,0 c -0.229,0.799 -0.428,1.614 -0.619,2.428 l 0,0 c -0.167,0.73 -0.339,1.459 -0.476,2.205 l 0,0 c -0.181,0.963 -0.315,1.947 -0.44,2.93 l 0,0 c -0.083,0.627 -0.185,1.248 -0.244,1.886 l 0,0 c -0.149,1.564 -0.229,3.145 -0.238,4.741 l 0,0 c -10e-4,0.074 -0.009,0.138 -0.009,0.214 l 0,0 0,0.016 0,0.017 c 0,22.623 33.2,85.702 51.412,117.743 l 0,0 c 2.131,-3.751 4.47,-7.931 6.934,-12.415 l 0,0 c -0.005,-0.005 -0.009,-0.011 -0.012,-0.014 l 0,0 c 2.336,-4.247 4.782,-8.765 7.281,-13.474 l 0,0 c 0.003,0.002 0.005,0.008 0.007,0.017 l 0,0 c 8.217,-15.487 16.946,-32.909 23.899,-48.851 l 0,0 c 0.047,-0.12 0.103,-0.24 0.153,-0.359 l 0,0 c 1.626,-3.739 3.148,-7.38 4.539,-10.912 l 0,0 c 0.216,-0.539 0.428,-1.075 0.632,-1.609 l 0,0 c 0.394,-1.014 0.788,-2.027 1.16,-3.02 l 0,0 c 0.479,-1.278 0.931,-2.537 1.372,-3.765 l 0,0 c 0.282,-0.801 0.542,-1.581 0.808,-2.364 l 0,0 c 0.274,-0.803 0.535,-1.589 0.783,-2.37 l 0,0 c 0.218,-0.688 0.446,-1.374 0.649,-2.041 l 0,0 c 0.391,-1.276 0.738,-2.502 1.065,-3.706 l 0,0 c 0.148,-0.539 0.273,-1.059 0.406,-1.582 l 0,0 c 0.244,-0.97 0.464,-1.918 0.662,-2.828 l 0,0 c 0.069,-0.346 0.16,-0.716 0.224,-1.051 l 0,0 c 0.236,-1.177 0.407,-2.289 0.547,-3.363 l 0,0 c 0.043,-0.316 0.079,-0.637 0.107,-0.945 l 0,0 c 0.112,-1.067 0.19,-2.09 0.194,-3.028 l 0,0 c 0,-0.02 0.003,-0.047 0.003,-0.063 l 0,0 0,-0.017 0,-0.016 c 0,-0.059 -0.007,-0.108 -0.007,-0.164 l 0,0 c -0.006,-1.591 -0.092,-3.167 -0.236,-4.719 l 0,0 c -0.055,-0.599 -0.144,-1.19 -0.217,-1.78 l 0,0 c -0.129,-1.002 -0.268,-1.994 -0.45,-2.979 l 0,0 c -0.126,-0.686 -0.278,-1.373 -0.43,-2.058 l 0,0 c -0.192,-0.854 -0.407,-1.696 -0.64,-2.53 l 0,0 c -0.201,-0.72 -0.408,-1.457 -0.64,-2.164 l 0,0 c -0.239,-0.742 -0.517,-1.465 -0.787,-2.189 l 0,0 c -0.282,-0.76 -0.555,-1.521 -0.872,-2.266 l 0,0 c -0.177,-0.41 -0.382,-0.799 -0.568,-1.195 l 0,0 c -0.877,-1.914 -1.862,-3.76 -2.949,-5.539 l 0,0 c -0.166,-0.269 -0.316,-0.547 -0.489,-0.815 l 0,0 c -0.599,-0.939 -1.239,-1.851 -1.902,-2.748 l 0,0 c -0.201,-0.269 -0.393,-0.548 -0.599,-0.818 l 0,0 c -0.704,-0.92 -1.436,-1.818 -2.194,-2.688 l 0,0 c -0.149,-0.167 -0.294,-0.329 -0.443,-0.494 l 0,0 C 92.776,19.41 79.252,12.748 64.196,12.748 l 0,0 c -11.577,0 -22.236,3.959 -30.838,10.563"
         inkscape:connector-curvature="0"
         id="path18" /></clipPath><linearGradient
       x1="0"
       y1="0"
       x2="1"
       y2="0"
       id="linearGradient24"
       gradientUnits="userSpaceOnUse"
       gradientTransform="matrix(-1.53e-5,-208.2251,-208.2251,1.53e-5,78.404785,208.22461)"
       spreadMethod="pad"><stop
         id="stop26"
         style="stop-color:#fa6cff;stop-opacity:1"
         offset="0" /><stop
         id="stop28"
         style="stop-color:#8433f7;stop-opacity:1"
         offset="1" /></linearGradient></defs><g
     transform="matrix(1.25,0,0,-1.25,0,260.28125)"
     id="g10"><g
       id="g12"><g
         clip-path="url(#clipPath16)"
         id="g14"><g
           id="g20"><g
             id="g22"><path
               d="m 92.614,208.225 -5.507,-9.345 c -0.542,-0.92 -3.885,-6.618 -8.703,-15.22 l 0,0 c -4.815,8.602 -8.156,14.3 -8.699,15.22 l 0,0 -5.509,9.345 -5.505,-9.345 C 56.294,194.813 0,98.915 0,65.122 l 0,0 C 0,29.211 28.8,0 64.196,0 l 0,0 c 4.886,0 9.635,0.566 14.208,1.621 l 0,0 C 82.981,0.566 87.733,0 92.614,0 l 0,0 c 35.402,0 64.196,29.211 64.196,65.122 l 0,0 c 0,33.793 -56.293,129.691 -58.688,133.758 l 0,0 -5.508,9.345 z m 35.78,-143.103 c 0,22.656 -25.308,73.234 -42.709,105.328 l 0,0 c 2.463,4.478 4.8,8.664 6.929,12.415 l 0,0 c 18.214,-32.039 51.413,-95.111 51.413,-117.743 l 0,0 c 0,-24.859 -17.111,-45.673 -39.957,-50.989 l 0,0 c 14.802,11.939 24.324,30.351 24.324,50.989 M 33.358,23.311 c -0.006,0 -0.008,0.002 -0.008,0.002 l 0,0 C 32.233,24.166 31.157,25.067 30.113,26 l 0,0 c -0.049,0.045 -0.094,0.09 -0.141,0.137 l 0,0 c -4.07,3.714 -7.557,8.05 -10.305,12.898 l 0,0 c -0.096,0.168 -0.202,0.328 -0.295,0.497 l 0,0 c -0.481,0.868 -0.912,1.767 -1.344,2.674 l 0,0 c -0.259,0.534 -0.523,1.065 -0.766,1.61 l 0,0 c -0.354,0.809 -0.673,1.623 -0.99,2.456 l 0,0 c -0.26,0.689 -0.508,1.37 -0.743,2.07 l 0,0 c -0.258,0.771 -0.498,1.549 -0.719,2.343 l 0,0 c -0.229,0.799 -0.428,1.614 -0.619,2.428 l 0,0 c -0.167,0.73 -0.339,1.459 -0.476,2.205 l 0,0 c -0.181,0.963 -0.315,1.947 -0.44,2.93 l 0,0 c -0.083,0.627 -0.185,1.248 -0.244,1.886 l 0,0 c -0.149,1.564 -0.229,3.145 -0.238,4.741 l 0,0 c -10e-4,0.074 -0.009,0.138 -0.009,0.214 l 0,0 0,0.016 0,0.017 c 0,22.623 33.2,85.702 51.412,117.743 l 0,0 c 2.131,-3.751 4.47,-7.931 6.934,-12.415 l 0,0 c -0.005,-0.005 -0.009,-0.011 -0.012,-0.014 l 0,0 c 2.336,-4.247 4.782,-8.765 7.281,-13.474 l 0,0 c 0.003,0.002 0.005,0.008 0.007,0.017 l 0,0 c 8.217,-15.487 16.946,-32.909 23.899,-48.851 l 0,0 c 0.047,-0.12 0.103,-0.24 0.153,-0.359 l 0,0 c 1.626,-3.739 3.148,-7.38 4.539,-10.912 l 0,0 c 0.216,-0.539 0.428,-1.075 0.632,-1.609 l 0,0 c 0.394,-1.014 0.788,-2.027 1.16,-3.02 l 0,0 c 0.479,-1.278 0.931,-2.537 1.372,-3.765 l 0,0 c 0.282,-0.801 0.542,-1.581 0.808,-2.364 l 0,0 c 0.274,-0.803 0.535,-1.589 0.783,-2.37 l 0,0 c 0.218,-0.688 0.446,-1.374 0.649,-2.041 l 0,0 c 0.391,-1.276 0.738,-2.502 1.065,-3.706 l 0,0 c 0.148,-0.539 0.273,-1.059 0.406,-1.582 l 0,0 c 0.244,-0.97 0.464,-1.918 0.662,-2.828 l 0,0 c 0.069,-0.346 0.16,-0.716 0.224,-1.051 l 0,0 c 0.236,-1.177 0.407,-2.289 0.547,-3.363 l 0,0 c 0.043,-0.316 0.079,-0.637 0.107,-0.945 l 0,0 c 0.112,-1.067 0.19,-2.09 0.194,-3.028 l 0,0 c 0,-0.02 0.003,-0.047 0.003,-0.063 l 0,0 0,-0.017 0,-0.016 c 0,-0.059 -0.007,-0.108 -0.007,-0.164 l 0,0 c -0.006,-1.591 -0.092,-3.167 -0.236,-4.719 l 0,0 c -0.055,-0.599 -0.144,-1.19 -0.217,-1.78 l 0,0 c -0.129,-1.002 -0.268,-1.994 -0.45,-2.979 l 0,0 c -0.126,-0.686 -0.278,-1.373 -0.43,-2.058 l 0,0 c -0.192,-0.854 -0.407,-1.696 -0.64,-2.53 l 0,0 c -0.201,-0.72 -0.408,-1.457 -0.64,-2.164 l 0,0 c -0.239,-0.742 -0.517,-1.465 -0.787,-2.189 l 0,0 c -0.282,-0.76 -0.555,-1.521 -0.872,-2.266 l 0,0 c -0.177,-0.41 -0.382,-0.799 -0.568,-1.195 l 0,0 c -0.877,-1.914 -1.862,-3.76 -2.949,-5.539 l 0,0 c -0.166,-0.269 -0.316,-0.547 -0.489,-0.815 l 0,0 c -0.599,-0.939 -1.239,-1.851 -1.902,-2.748 l 0,0 c -0.201,-0.269 -0.393,-0.548 -0.599,-0.818 l 0,0 c -0.704,-0.92 -1.436,-1.818 -2.194,-2.688 l 0,0 c -0.149,-0.167 -0.294,-0.329 -0.443,-0.494 l 0,0 C 92.776,19.41 79.252,12.748 64.196,12.748 l 0,0 c -11.577,0 -22.236,3.959 -30.838,10.563"
               inkscape:connector-curvature="0"
               id="path30"
               style="fill:url(#linearGradient24);stroke:none" /></g></g></g></g></g></svg>