<?xml version="1.0" encoding="utf-8"?>
<!-- Generator: Adobe Illustrator 19.2.1, SVG Export Plug-In . SVG Version: 6.00 Build 0)  -->
<svg version="1.1" id="Layer_1" xmlns="http://www.w3.org/2000/svg" xmlns:xlink="http://www.w3.org/1999/xlink" x="0px" y="0px"
	 viewBox="0 0 176.6 250.3" style="enable-background:new 0 0 176.6 250.3;" xml:space="preserve">
<style type="text/css">
	.st0{fill:#EF4902;}
	.st1{fill:#F79C6D;}
</style>
<g>
	<path class="st0" d="M101.5,143.6c-9.7-18.9-19.4-37.9-29.1-56.8c-1.9,0.2-2,1.8-2.5,2.9c-8.5,16.8-17,33.6-25.3,50.4
		c-1.5,3-3.2,4-6.5,3.9c-11.2-0.2-22.3,0-33.5,0.1c-5.5,0-5.5,0-3.1-4.8c21.6-43,43.2-85.9,64.8-128.9C68,7.2,69.6,4,71.7,0
		c24.5,48,48.6,95.4,73.2,143.8c-14.9,0-28.9,0-42.9,0c0,0-0.2-0.2-0.2-0.2L101.5,143.6z"/>
	<path class="st1" d="M101.5,143.6l0.3-0.1c0,0,0.2,0.2,0.2,0.2c-0.4,1.4,0.3,2.6,0.9,3.8c6.4,12.4,12.7,24.9,19.1,37.3
		c0.3,0.6,0.8,1,1.5,1.9c6.6-13.1,13.2-25.8,19.4-38.6c1.6-3.3,3.4-4.6,7.2-4.5c7.8,0.3,15.7,0.1,23.5,0c2.6,0,3.9,0.3,2.3,3.3
		c-17.2,34.2-34.4,68.4-51.6,102.6c-0.1,0.3-0.5,0.5-0.7,0.7c-1.5-0.5-1.7-1.9-2.3-3c-16.7-32.8-33.4-65.5-50.1-98.3
		c-2.5-5-2.5-5,2.9-5C83.2,143.8,92.4,143.7,101.5,143.6z"/>
</g>
</svg>
